<?xml version="1.0" standalone="no"?>
<!DOCTYPE svg PUBLIC "-//W3C//DTD SVG 20010904//EN"
 "http://www.w3.org/TR/2001/REC-SVG-20010904/DTD/svg10.dtd">
<svg version="1.2" xmlns="http://www.w3.org/2000/svg"
 width="1000pt" height="1000pt" viewBox="0 0 1000 1000"
 preserveAspectRatio="xMidYMid meet">

<g transform="translate(0.000000,1280.000000) scale(0.100000,-0.100000)"
fill="#000000" stroke="none">
<path d="M4710 12794 c-25 -2 -103 -9 -175 -14 -370 -31 -765 -113 -1133 -236
-1434 -477 -2588 -1600 -3102 -3019 -27 -77 -55 -148 -60 -157 -6 -10 -10 -26
-10 -37 0 -10 -7 -38 -16 -62 -74 -209 -163 -672 -196 -1014 -16 -173 -16
-683 0 -860 103 -1108 544 -2115 1279 -2920 868 -951 2033 -1517 3323 -1616
226 -17 708 -7 925 20 817 101 1550 372 2208 817 76 52 140 94 142 94 1 0 16
11 31 24 16 13 76 61 134 107 310 244 630 570 881 899 392 513 697 1145 855
1771 98 391 140 709 150 1134 19 783 -148 1551 -490 2260 -337 698 -851 1329
-1464 1795 -54 41 -72 61 -72 78 0 20 -4 23 -23 18 -18 -4 -58 18 -178 97
-674 447 -1426 716 -2244 802 -141 15 -662 28 -765 19z m269 -51 c-31 -41
-216 -261 -384 -458 -340 -398 -526 -636 -641 -821 -32 -53 -62 -100 -65 -105
-3 -5 -59 14 -125 42 -254 109 -553 196 -1284 374 -173 42 -321 80 -329 85
-15 8 121 101 324 222 714 423 1577 668 2384 677 126 1 133 0 120 -16z m341 7
c697 -49 1387 -248 1996 -578 207 -112 494 -293 494 -312 0 -4 -174 -51 -387
-104 -447 -110 -637 -161 -813 -218 -146 -47 -342 -124 -431 -169 -61 -30 -64
-31 -77 -13 -7 11 -49 75 -94 144 -143 222 -295 417 -618 795 -199 233 -374
444 -378 456 -5 12 124 12 308 -1z m-199 -181 c63 -74 188 -223 279 -330 327
-385 510 -625 646 -848 32 -53 36 -65 24 -73 -125 -72 -254 -155 -317 -205
-222 -175 -411 -418 -520 -666 -17 -38 -34 -69 -39 -70 -12 -3 -75 251 -108
433 -33 180 -64 453 -73 628 -3 72 -9 132 -13 132 -4 0 -10 -61 -13 -136 -13
-266 -66 -634 -125 -877 -27 -107 -38 -138 -44 -126 -2 2 -23 42 -47 89 -167
325 -422 580 -767 765 -49 27 -90 49 -92 51 -5 3 94 159 161 254 141 197 255
339 602 745 94 110 204 240 244 288 41 48 77 86 81 85 4 -2 59 -64 121 -139z
m-2741 -800 c135 -33 363 -89 506 -125 806 -200 1212 -384 1532 -698 186 -181
307 -363 408 -614 33 -83 107 -322 101 -328 -2 -2 -54 -8 -117 -14 -520 -48
-974 -261 -1341 -629 -195 -197 -346 -414 -446 -643 -26 -60 -51 -108 -55
-108 -16 0 -188 120 -275 193 -352 293 -544 647 -625 1152 -21 129 -23 172
-23 535 1 354 4 436 33 785 17 215 35 427 38 473 4 45 9 82 12 82 4 0 117 -27
252 -61z m5499 47 c6 -7 13 -40 16 -72 19 -208 57 -778 66 -987 42 -975 -164
-1543 -721 -1988 -59 -48 -209 -149 -219 -149 -5 0 -16 21 -26 48 -29 77 -132
271 -197 367 -183 271 -421 496 -704 664 -262 157 -601 268 -877 288 -59 4
-91 11 -94 19 -7 18 50 217 94 329 97 245 204 414 383 599 248 257 583 441
1085 597 167 52 1120 296 1161 298 12 1 27 -5 33 -13z m-5789 -18 c0 -13 -16
-223 -36 -468 -41 -513 -55 -998 -35 -1216 7 -69 10 -128 8 -130 -2 -2 -48
-13 -103 -24 -202 -41 -376 -92 -644 -190 -163 -59 -304 -115 -845 -335 -72
-29 -133 -51 -137 -49 -4 3 9 48 28 101 195 540 479 1038 847 1488 156 191
468 504 647 647 135 110 252 198 261 198 5 0 9 -10 9 -22z m6010 -151 c565
-459 1046 -1078 1353 -1743 96 -208 216 -518 204 -530 -2 -2 -105 36 -228 86
-694 282 -811 327 -1029 395 -123 39 -383 105 -411 105 -27 0 -30 13 -19 92
33 236 29 692 -10 1208 -35 460 -38 505 -33 513 5 8 34 -13 173 -126z m-2899
-1717 c154 -61 258 -186 290 -348 15 -79 7 -210 -20 -312 -11 -41 -14 -67 -8
-56 112 179 214 282 337 344 204 102 432 72 581 -78 89 -88 129 -183 129 -306
0 -158 -80 -311 -237 -453 -37 -34 -64 -61 -60 -61 4 0 30 11 57 25 88 45 213
75 309 75 195 0 333 -81 406 -239 20 -42 43 -89 52 -106 25 -44 21 -191 -6
-277 -23 -73 -87 -166 -147 -217 -82 -68 -276 -141 -375 -141 -52 0 -25 -13
67 -31 273 -56 445 -239 447 -479 3 -212 -127 -406 -314 -469 -141 -48 -342
-17 -492 76 -34 21 -30 15 37 -63 164 -190 210 -379 136 -551 -15 -37 -39 -65
-92 -109 -39 -32 -81 -68 -92 -80 -93 -93 -315 -99 -480 -11 -79 41 -200 162
-250 250 -21 37 -40 66 -41 65 -2 -2 3 -32 11 -68 52 -245 -49 -463 -260 -565
-245 -118 -530 -30 -635 195 -54 115 -62 260 -25 420 3 14 -11 -4 -31 -40 -78
-137 -164 -222 -275 -273 -91 -42 -217 -49 -319 -18 -45 14 -71 27 -71 36 0 8
-12 21 -27 29 -16 8 -48 32 -73 53 -25 22 -52 42 -62 46 -9 3 -33 39 -53 79
-89 181 -43 395 124 571 42 45 37 46 -28 8 -245 -145 -497 -104 -635 103 -136
205 -116 488 46 649 84 84 166 123 343 163 26 6 23 8 -30 15 -172 23 -338 111
-426 226 -66 86 -91 156 -98 278 l-6 100 -17 -75 c-29 -129 -38 -191 -48 -340
-37 -531 132 -1065 470 -1490 38 -47 123 -138 189 -203 67 -64 121 -121 121
-125 -1 -11 -155 -124 -250 -183 -194 -120 -390 -198 -619 -246 -113 -24 -148
-27 -341 -27 -230 -1 -334 11 -560 61 -145 32 -393 107 -575 173 -167 61 -966
380 -978 390 -15 13 532 882 699 1111 301 414 580 668 906 824 197 94 379 143
618 166 106 10 344 8 388 -3 8 -1 18 4 22 12 22 41 70 149 70 157 0 20 96 100
150 125 148 69 315 62 517 -22 l93 -39 -84 80 c-130 123 -194 235 -211 370
-36 288 264 552 578 509 179 -25 332 -150 447 -365 17 -33 29 -49 26 -35 -45
219 -29 380 48 513 34 57 129 148 186 177 93 48 146 58 279 53 90 -3 137 -10
172 -23z m-3151 -47 c64 -375 222 -699 461 -948 43 -45 79 -86 79 -90 0 -9
-141 1 -292 20 -236 31 -488 81 -723 144 -60 17 -111 29 -112 27 -1 -1 53 -24
120 -50 355 -140 640 -284 929 -469 43 -27 76 -52 73 -57 -2 -4 -44 -10 -92
-14 -392 -29 -776 -207 -1095 -506 -49 -45 -92 -80 -96 -78 -14 5 -130 137
-207 233 -102 129 -209 278 -317 445 -142 217 -498 787 -498 797 0 4 83 40
183 80 100 39 295 117 432 173 475 192 751 284 1055 348 88 19 87 20 100 -55z
m6096 13 c280 -70 480 -141 1084 -386 234 -95 427 -174 430 -177 6 -5 14 9
-245 -408 -340 -547 -502 -782 -680 -987 l-67 -78 -73 68 c-215 201 -428 337
-665 425 -110 41 -292 83 -400 93 -41 3 -81 10 -88 14 -17 9 120 99 323 211
156 87 430 214 632 294 68 27 121 50 120 52 -2 1 -73 -15 -158 -36 -308 -78
-652 -136 -879 -148 l-115 -6 92 97 c140 148 235 281 317 443 64 128 137 347
167 501 14 76 10 76 205 28z m-7666 -941 c331 -531 510 -789 690 -995 46 -52
90 -103 98 -112 13 -16 6 -27 -79 -125 -186 -216 -362 -469 -644 -928 -211
-343 -275 -439 -284 -429 -19 21 -98 336 -140 554 -139 733 -96 1587 115 2289
21 69 28 81 38 70 7 -8 100 -153 206 -324z m9227 284 c57 -188 122 -483 153
-701 34 -242 41 -324 47 -598 10 -449 -28 -826 -123 -1240 -32 -136 -85 -320
-93 -320 -7 0 -46 62 -295 463 -280 452 -484 743 -640 915 -36 40 -66 75 -66
78 0 3 35 47 78 98 209 242 355 461 881 1314 14 23 30 41 35 39 5 -2 15 -23
23 -48z m-2160 -824 c304 -40 571 -148 820 -333 320 -237 581 -564 1013 -1267
67 -110 160 -259 206 -331 46 -73 84 -136 84 -140 0 -5 -19 -17 -43 -26 -23
-9 -199 -81 -392 -159 -711 -289 -982 -377 -1340 -436 -167 -27 -481 -25 -638
5 -285 54 -573 190 -820 387 l-58 46 105 100 c128 121 210 218 312 370 186
275 317 632 353 961 24 219 8 516 -39 716 -32 134 -47 122 149 122 96 0 222
-7 288 -15z m2118 -2137 c-23 -76 -87 -245 -147 -388 -316 -749 -830 -1424
-1476 -1937 -64 -51 -119 -89 -123 -85 -4 4 9 212 28 462 39 527 48 993 23
1200 -23 191 -33 170 95 196 61 13 175 42 254 65 237 67 383 122 1126 423 116
47 214 86 218 86 5 0 5 -10 2 -22z m-8966 -153 c387 -156 636 -250 806 -303
141 -45 383 -106 461 -117 79 -12 82 -16 73 -77 -5 -29 -13 -138 -19 -243 -13
-223 -4 -496 35 -1000 38 -489 41 -570 24 -560 -59 35 -264 201 -412 333 -539
483 -994 1131 -1267 1807 -57 141 -110 291 -110 312 0 15 -32 27 409 -152z
m5544 -181 c190 -523 150 -1037 -120 -1544 -150 -282 -328 -525 -742 -1014
-102 -121 -223 -265 -269 -320 -46 -56 -87 -102 -92 -104 -4 -2 -23 16 -41 40
-19 23 -146 175 -283 338 -483 571 -652 801 -806 1095 -97 184 -159 358 -203
565 -18 89 -21 136 -21 310 0 183 3 219 27 332 27 128 104 378 116 378 3 0 40
-21 81 -46 259 -157 578 -261 899 -295 140 -14 418 -7 551 16 278 46 558 151
790 294 36 22 69 39 74 37 6 -1 23 -38 39 -82z m499 -63 c173 -93 359 -156
568 -192 89 -16 443 -17 538 -2 77 12 73 17 93 -142 26 -207 16 -701 -24
-1238 -20 -258 -37 -470 -39 -473 -6 -5 -966 236 -1113 279 -264 78 -610 213
-621 242 -3 6 23 68 56 138 121 252 178 478 187 738 6 157 -4 283 -32 419 -8
36 -12 67 -10 69 10 10 198 -160 385 -348 175 -176 271 -282 434 -481 l28 -35
-23 40 c-13 22 -46 76 -75 120 -163 255 -337 594 -443 863 -11 28 -16 52 -11
52 5 0 51 -22 102 -49z m-3396 2 c-49 -140 -171 -393 -289 -603 -75 -133 -210
-353 -235 -383 -8 -9 -13 -19 -11 -21 2 -3 35 34 74 81 119 148 307 353 446
488 149 145 342 309 347 295 2 -5 -3 -43 -12 -83 -81 -394 -22 -794 176 -1191
46 -93 49 -101 33 -113 -52 -37 -377 -161 -615 -233 -122 -37 -1084 -281
-1120 -284 -16 -1 -12 -38 -71 744 -27 352 -31 791 -10 973 7 64 17 120 22
122 4 3 78 0 164 -7 350 -27 679 36 977 187 68 34 126 63 130 64 4 0 1 -16 -6
-36z m624 -1646 c123 -207 304 -442 680 -887 118 -140 246 -293 285 -340 38
-47 72 -89 76 -93 6 -8 67 63 522 607 253 301 441 558 573 782 10 16 19 14
140 -38 275 -118 501 -187 1126 -342 233 -57 434 -109 447 -114 23 -8 22 -11
-40 -54 -334 -237 -782 -463 -1207 -609 -524 -179 -1033 -262 -1597 -262 -878
0 -1691 216 -2455 651 -136 77 -390 242 -390 253 0 11 51 24 550 148 606 151
889 239 1115 346 50 24 97 44 105 44 9 0 39 -39 70 -92z"/>
<path d="M4395 12499 c-377 -39 -810 -154 -1186 -314 -111 -48 -406 -200 -493
-256 -70 -44 -70 -44 -40 -51 16 -5 150 -37 298 -73 306 -74 525 -137 703
-201 67 -24 126 -44 131 -44 5 0 29 30 53 68 128 199 468 627 677 855 l26 27
-45 -1 c-24 -1 -80 -5 -124 -10z"/>
<path d="M5431 12503 c8 -10 68 -81 135 -158 248 -289 416 -503 529 -673 51
-77 72 -101 84 -96 229 94 526 181 1029 299 61 15 112 30 112 34 0 4 -66 45
-146 91 -459 261 -978 433 -1504 500 -85 11 -177 20 -204 20 -45 0 -47 -1 -35
-17z"/>
<path d="M2490 11283 c0 -43 -10 -172 -22 -288 -28 -275 -30 -636 -5 -771 47
-257 142 -445 303 -608 61 -61 196 -166 214 -166 3 0 25 26 47 59 57 80 237
266 359 372 179 153 428 303 651 390 l131 52 -30 86 c-62 175 -133 294 -245
412 -85 88 -200 171 -314 223 -131 60 -259 98 -684 201 -88 22 -274 75 -387
111 -16 5 -18 -3 -18 -73z"/>
<path d="M7380 11294 c-47 -13 -166 -42 -265 -64 -549 -123 -786 -225 -1003
-434 -88 -85 -174 -204 -218 -302 -33 -73 -74 -192 -74 -213 0 -11 27 -25 88
-46 109 -37 325 -144 457 -226 196 -122 449 -347 582 -516 36 -46 68 -83 71
-83 4 0 54 39 112 88 323 269 430 572 391 1107 -7 88 -16 216 -21 285 -5 69
-11 194 -12 277 -2 95 -7 152 -13 152 -5 -1 -48 -12 -95 -25z"/>
<path d="M1816 11290 c-337 -278 -679 -697 -915 -1120 -75 -135 -224 -451
-216 -458 2 -2 106 39 232 91 358 150 631 247 859 306 l41 11 0 267 c0 260 7
399 39 762 8 95 13 175 11 177 -1 2 -24 -14 -51 -36z"/>
<path d="M8120 11293 c0 -21 7 -108 14 -193 25 -275 38 -573 34 -779 l-4 -201
36 -10 c19 -5 62 -16 95 -24 153 -39 446 -146 779 -285 120 -50 221 -89 223
-87 6 5 -75 193 -133 307 -114 227 -300 516 -470 729 -104 131 -415 452 -521
539 l-53 43 0 -39z"/>
<path d="M4868 8590 c-72 -12 -145 -38 -233 -83 -62 -32 -102 -63 -176 -137
-83 -83 -102 -108 -142 -190 -64 -134 -80 -201 -81 -345 0 -95 4 -136 22 -198
97 -340 391 -567 736 -567 219 0 405 78 552 232 147 153 214 319 214 534 0
170 -40 298 -140 444 -159 231 -467 358 -752 310z"/>
<path d="M2164 7795 c-236 -43 -411 -139 -599 -329 -141 -142 -230 -264 -422
-584 -85 -141 -166 -271 -179 -289 -13 -17 -24 -36 -24 -42 0 -5 44 -24 98
-42 107 -35 186 -66 497 -192 305 -123 444 -162 620 -174 158 -10 353 30 497
103 72 36 238 144 238 154 0 5 -27 51 -60 102 -218 335 -356 769 -377 1181
l-6 127 -106 -1 c-58 0 -138 -7 -177 -14z"/>
<path d="M367 8728 c-65 -280 -87 -473 -94 -823 -6 -310 6 -489 48 -740 19
-116 64 -323 71 -330 2 -2 39 56 83 128 196 327 389 616 518 777 33 41 65 81
70 87 6 9 -5 29 -36 65 -119 141 -289 392 -492 728 -65 107 -123 201 -130 208
-9 10 -17 -13 -38 -100z"/>
<path d="M9460 8628 c-205 -337 -342 -538 -503 -740 l-29 -36 64 -79 c134
-162 299 -406 493 -728 60 -99 112 -184 116 -189 15 -17 67 228 102 479 30
220 32 788 4 990 -37 263 -89 525 -105 525 -4 0 -68 -100 -142 -222z"/>
<path d="M7547 7698 c-21 -388 -135 -777 -325 -1108 -30 -52 -70 -116 -89
-142 l-34 -47 64 -45 c92 -66 219 -130 322 -165 277 -92 521 -61 963 120 238
98 463 184 540 208 40 12 72 24 72 27 0 4 -38 65 -83 138 -46 72 -110 176
-142 231 -366 629 -678 872 -1146 892 l-136 6 -6 -115z"/>
<path d="M9030 5830 c-296 -125 -565 -224 -736 -271 l-120 -33 0 -291 c0 -263
-15 -553 -44 -835 -4 -47 -7 -86 -6 -88 4 -3 112 92 206 182 346 333 616 698
828 1121 62 123 142 303 142 319 0 10 -8 7 -270 -104z"/>
<path d="M720 5929 c0 -6 18 -54 41 -107 144 -338 359 -686 611 -992 154 -186
497 -524 514 -507 4 3 -4 131 -17 284 -18 215 -23 351 -24 601 0 237 -3 322
-12 322 -25 0 -266 75 -418 129 -130 47 -372 145 -657 265 -26 11 -38 13 -38
5z"/>
<path d="M5643 5380 c-108 -34 -288 -65 -463 -81 -220 -20 -525 6 -745 62 -66
17 -129 32 -139 33 -16 1 -24 -13 -43 -79 -60 -204 -68 -422 -24 -589 28 -104
104 -263 180 -373 58 -86 101 -139 361 -449 69 -82 154 -189 189 -237 51 -70
67 -85 76 -75 6 7 37 45 68 84 31 39 118 141 193 225 301 341 449 579 515 825
33 122 37 338 10 471 -24 116 -59 214 -75 212 -6 -1 -52 -14 -103 -29z"/>
<path d="M6145 4014 c-122 -187 -273 -381 -547 -701 -76 -88 -138 -164 -138
-167 0 -3 19 -3 43 -1 23 3 101 12 173 20 440 51 881 182 1309 390 161 78 377
204 370 215 -2 4 -30 12 -62 19 -32 7 -182 43 -333 81 -325 81 -559 152 -741
225 -13 5 -30 -14 -74 -81z"/>
<path d="M3800 4060 c-67 -39 -455 -153 -820 -241 -135 -32 -258 -62 -275 -67
-29 -8 -27 -10 83 -75 451 -268 972 -451 1497 -526 170 -24 295 -35 295 -26 0
3 -73 93 -163 198 -269 317 -421 512 -526 680 -42 66 -59 76 -91 57z"/>
<path d="M1662 1983 c3 -530 4 -570 22 -605 28 -58 69 -78 159 -78 104 0 107
2 107 65 0 56 -8 65 -54 65 -12 0 -32 7 -44 16 l-22 15 0 533 c0 400 -3 535
-12 544 -7 7 -42 12 -85 12 l-73 0 2 -567z"/>
<path d="M2092 1983 c3 -530 4 -570 22 -605 28 -58 69 -78 159 -78 104 0 107
2 107 65 0 56 -8 65 -54 65 -12 0 -32 7 -44 16 l-22 15 0 525 c0 343 -4 532
-10 545 -9 16 -22 19 -86 19 l-74 0 2 -567z"/>
<path d="M2584 2513 c-37 -7 -59 -41 -59 -90 0 -61 35 -93 104 -93 70 0 101
27 101 86 0 25 -4 54 -10 64 -16 31 -75 45 -136 33z"/>
<path d="M5144 2513 c-37 -7 -59 -41 -59 -90 0 -61 35 -93 104 -93 70 0 101
27 101 86 0 25 -4 54 -10 64 -16 31 -75 45 -136 33z"/>
<path d="M27 2503 c-9 -8 -9 -1156 -1 -1177 5 -13 23 -16 90 -16 l84 0 0 260
0 260 210 0 210 0 0 69 c0 54 -4 70 -16 75 -9 3 -103 6 -210 6 l-194 0 0 190
0 190 240 0 240 0 0 65 c0 53 -3 66 -19 75 -22 11 -623 15 -634 3z"/>
<path d="M6777 2503 c-9 -8 -9 -1156 -1 -1177 5 -14 43 -16 325 -16 l319 0 0
66 c0 55 -3 67 -18 71 -9 2 -114 5 -232 6 l-215 2 -3 515 c-2 470 -4 516 -19
528 -17 12 -144 17 -156 5z"/>
<path d="M7817 2200 c-174 -27 -262 -154 -274 -394 -13 -262 47 -420 184 -487
43 -22 62 -24 178 -24 115 0 136 3 182 24 139 62 206 238 189 491 -18 266
-111 378 -326 393 -41 3 -101 1 -133 -3z m161 -135 c44 -9 88 -62 108 -130 12
-44 17 -95 16 -192 -1 -243 -49 -323 -194 -323 -78 1 -130 28 -156 81 -63 131
-50 442 21 525 13 15 43 32 72 39 47 13 63 13 133 0z"/>
<path d="M9514 2201 c-185 -29 -274 -176 -274 -456 0 -237 55 -360 190 -424
52 -25 62 -26 215 -25 110 0 174 5 205 15 44 14 45 16 48 60 4 68 -6 72 -129
59 -247 -27 -341 25 -364 203 l-6 47 254 0 c294 0 265 -13 274 121 17 255 -78
388 -287 402 -41 3 -98 2 -126 -2z m176 -139 c46 -23 70 -68 80 -150 16 -120
27 -113 -184 -110 l-181 3 3 55 c7 115 35 169 106 201 52 24 131 24 176 1z"/>
<path d="M885 2182 l-70 -17 -3 -46 c-4 -68 5 -72 135 -59 173 18 278 -2 306
-57 17 -33 29 -116 21 -138 -5 -12 -26 -15 -108 -15 -215 -1 -315 -34 -371
-124 -26 -43 -30 -61 -34 -134 -8 -188 67 -285 228 -299 90 -8 158 10 232 59
33 22 61 39 63 37 1 -2 7 -20 12 -39 11 -39 30 -47 100 -42 l44 4 0 337 c0
381 -4 405 -70 471 -62 62 -127 80 -283 79 -86 0 -156 -6 -202 -17z m393 -556
c3 -116 -3 -129 -78 -170 -69 -38 -168 -46 -220 -19 -52 27 -72 74 -67 152 4
54 9 68 35 93 39 39 74 47 212 45 l115 -2 3 -99z"/>
<path d="M3240 2183 c-25 -8 -66 -30 -93 -49 -26 -19 -49 -34 -51 -34 -2 0 -7
16 -10 35 -9 44 -33 57 -99 53 l-52 -3 -3 -424 c-2 -311 1 -427 9 -438 9 -10
32 -13 88 -11 l76 3 3 332 2 332 35 27 c103 78 254 70 297 -16 16 -31 18 -70
18 -345 0 -170 4 -315 8 -322 9 -14 21 -16 100 -14 l63 1 -3 358 -3 357 -27
50 c-51 96 -104 125 -230 125 -48 -1 -102 -8 -128 -17z"/>
<path d="M4140 2194 c-14 -3 -54 -12 -89 -21 -84 -21 -157 -89 -192 -178 -22
-56 -24 -74 -24 -245 0 -164 3 -191 21 -236 30 -74 66 -117 126 -150 48 -26
62 -29 143 -29 91 0 99 3 218 63 15 8 7 -149 -10 -185 -33 -70 -154 -93 -371
-70 l-73 8 3 -53 c3 -45 7 -55 28 -65 69 -33 303 -44 398 -19 70 19 116 51
152 104 48 72 51 113 49 537 l-2 390 31 3 c30 3 32 5 32 45 0 50 -7 63 -42 76
-57 22 -313 37 -398 25z m208 -406 l-3 -271 -45 -23 c-85 -43 -186 -40 -237 8
-50 47 -57 80 -58 258 0 158 1 167 25 210 39 69 88 90 217 90 l103 0 -2 -272z"/>
<path d="M5795 2183 c-22 -9 -61 -31 -88 -50 -26 -18 -49 -33 -51 -33 -2 0 -7
16 -10 35 -9 44 -33 57 -99 53 l-52 -3 -3 -418 c-1 -277 1 -425 8 -437 9 -17
22 -20 85 -20 l75 0 1 320 c1 176 2 325 3 332 2 19 83 76 124 88 95 26 184 2
214 -60 16 -31 18 -70 18 -345 0 -170 4 -315 8 -321 8 -14 27 -17 105 -15 l57
1 0 340 c0 319 -1 343 -21 395 -44 117 -103 155 -244 154 -59 0 -104 -6 -130
-16z"/>
<path d="M2547 2183 c-4 -3 -7 -196 -7 -428 0 -314 3 -424 12 -433 7 -7 42
-12 85 -12 l73 0 0 434 c0 386 -2 435 -16 440 -21 8 -139 8 -147 -1z"/>
<path d="M5107 2183 c-9 -8 -9 -836 -1 -857 5 -13 22 -16 85 -16 l79 0 0 434
c0 386 -2 435 -16 440 -21 8 -139 8 -147 -1z"/>
<path d="M8397 2183 c-6 -11 19 -149 44 -253 42 -169 181 -548 222 -604 10
-14 30 -17 100 -18 47 -1 88 0 90 3 9 11 83 183 118 273 52 133 112 346 135
473 22 130 19 135 -80 131 -71 -3 -71 -3 -74 -33 -14 -138 -97 -463 -160 -628
-32 -85 -36 -82 -91 87 -60 183 -106 368 -125 508 -5 32 -14 51 -26 58 -22 12
-147 14 -153 3z"/>
<path d="M4530 496 l0 -83 -74 1 c-82 1 -115 -15 -148 -70 -42 -72 -30 -249
21 -306 37 -41 105 -50 156 -19 43 25 55 26 55 6 0 -10 11 -15 35 -15 l35 0 0
269 c0 148 -3 276 -6 285 -4 10 -18 16 -40 16 l-34 0 0 -84z m-22 -142 c21 -6
22 -10 22 -130 0 -117 -1 -124 -22 -138 -38 -24 -68 -28 -99 -16 -38 16 -52
65 -47 165 3 70 6 79 31 101 28 24 68 30 115 18z"/>
<path d="M6061 560 c-50 -12 -83 -40 -111 -96 -23 -45 -25 -60 -25 -184 0
-125 2 -139 25 -185 19 -38 36 -56 70 -73 49 -25 135 -30 189 -11 27 9 32 16
29 38 -3 26 -4 26 -71 23 -126 -7 -158 29 -165 182 -6 109 10 185 44 217 23
21 35 24 110 24 81 -1 84 0 84 22 0 12 -8 26 -17 32 -27 14 -124 21 -162 11z"/>
<path d="M2168 553 c-10 -2 -18 -9 -18 -14 0 -5 0 -112 0 -239 0 -126 0 -243
0 -260 0 -28 3 -30 35 -30 l34 0 3 102 3 101 75 -2 c85 -2 130 15 164 62 30
41 30 183 0 224 -36 49 -78 63 -184 62 -52 -1 -103 -3 -112 -6z m217 -78 c22
-21 25 -33 25 -90 0 -57 -3 -69 -25 -90 -20 -21 -34 -25 -79 -25 -88 0 -86 -2
-86 114 0 57 3 106 7 109 3 4 35 7 70 7 55 0 68 -4 88 -25z"/>
<path d="M3512 438 c-46 -136 -87 -295 -98 -375 l-7 -53 36 0 c35 0 36 1 46
53 5 28 11 61 13 72 3 18 12 20 95 23 101 3 95 7 108 -73 11 -71 14 -75 52
-75 l36 0 -7 54 c-9 76 -68 305 -106 409 l-32 87 -47 0 -48 0 -41 -122z m126
-60 c18 -57 33 -114 35 -128 2 -24 0 -25 -67 -28 -38 -2 -73 1 -78 6 -5 5 3
47 18 98 14 49 30 104 36 122 5 17 12 32 17 32 4 0 22 -46 39 -102z"/>
<path d="M2653 409 c-67 -19 -98 -96 -91 -225 7 -132 54 -184 168 -184 61 0
108 22 135 63 42 65 37 246 -8 303 -38 49 -122 67 -204 43z m124 -64 c53 -37
57 -219 7 -270 -24 -23 -97 -20 -120 6 -16 18 -19 37 -19 131 0 103 1 111 24
129 28 23 78 25 108 4z"/>
<path d="M3987 396 c-43 -23 -45 -24 -50 -5 -4 14 -14 19 -36 19 l-31 0 2
-197 3 -198 38 -3 37 -3 0 155 c0 149 1 155 22 170 30 22 111 21 129 -1 10
-11 15 -59 18 -170 l3 -153 34 0 34 0 0 158 c0 129 -3 163 -18 192 -32 64
-105 78 -185 36z"/>
<path d="M5050 402 c-23 -11 -43 -33 -58 -62 -21 -40 -23 -56 -20 -145 3 -87
7 -105 27 -134 31 -44 76 -61 153 -60 85 1 112 10 116 37 2 12 0 22 -5 22 -4
1 -45 2 -90 3 -95 2 -119 18 -130 80 l-6 37 116 0 c130 0 127 -2 127 83 0 100
-55 157 -150 157 -25 0 -61 -8 -80 -18z m145 -66 c10 -15 15 -40 13 -63 l-3
-38 -80 0 c-87 0 -94 6 -81 61 11 42 41 64 91 64 36 0 48 -5 60 -24z"/>
<path d="M5435 416 c-5 -3 -23 -7 -38 -10 -22 -5 -28 -12 -25 -29 3 -21 8 -22
89 -22 56 0 91 -5 102 -13 17 -14 33 -69 23 -80 -6 -5 -35 -8 -129 -11 -30 -1
-47 -9 -74 -36 -34 -34 -35 -38 -31 -96 4 -48 9 -65 31 -87 24 -23 36 -27 85
-27 43 0 65 5 89 23 31 22 32 22 38 2 4 -14 15 -20 36 -20 l29 0 0 158 c0 169
-5 190 -53 226 -20 15 -45 21 -95 23 -37 1 -71 1 -77 -1z m155 -266 c0 -46 -3
-52 -32 -70 -40 -24 -95 -26 -120 -3 -11 10 -18 30 -18 54 0 52 26 69 107 69
l63 0 0 -50z"/>
<path d="M6825 406 c-63 -28 -89 -90 -88 -208 1 -136 46 -190 162 -196 84 -5
140 11 138 39 -1 10 -4 19 -7 20 -3 0 -43 1 -88 2 -78 2 -85 4 -108 30 -14 16
-24 41 -24 58 l0 29 115 0 115 0 6 26 c9 36 -2 117 -21 154 -28 54 -129 77
-200 46z m130 -60 c14 -10 19 -27 19 -62 l1 -49 -80 0 -80 0 1 44 c1 33 7 49
24 63 26 21 88 24 115 4z"/>
<path d="M7560 412 c-29 -6 -36 -12 -38 -35 l-3 -29 64 7 c107 12 158 -17 145
-81 -2 -14 -15 -18 -63 -20 -124 -6 -157 -26 -171 -101 -22 -116 83 -188 191
-133 47 24 55 25 55 4 0 -11 8 -14 33 -12 l32 3 2 132 c3 222 -19 263 -144
269 -37 1 -84 -1 -103 -4z m170 -261 c0 -63 -30 -91 -96 -91 -49 0 -74 25 -74
72 0 48 31 68 105 68 l65 0 0 -49z"/>
<path d="M2990 210 l0 -200 35 0 35 0 0 136 c0 74 4 143 10 153 9 18 42 34 93
45 22 5 27 12 27 36 0 26 -4 30 -29 30 -15 0 -44 -11 -64 -24 l-35 -24 -6 24
c-5 19 -13 24 -36 24 l-30 0 0 -200z"/>
<path d="M4710 210 l0 -200 35 0 35 0 0 145 0 145 33 20 c17 11 44 20 58 20
54 0 68 62 16 68 -16 2 -44 -6 -63 -17 -37 -22 -54 -20 -54 5 0 9 -11 14 -30
14 l-30 0 0 -200z"/>
<path d="M6324 396 c-3 -9 -4 -82 -2 -164 4 -165 15 -200 68 -222 40 -17 115
-8 150 19 28 20 29 20 35 1 4 -14 15 -20 36 -20 l29 0 0 200 0 200 -35 0 -35
0 0 -149 c0 -168 -2 -172 -71 -192 -35 -11 -43 -10 -67 8 -27 20 -27 21 -32
174 l-5 154 -33 3 c-22 2 -34 -2 -38 -12z"/>
<path d="M7115 363 c9 -60 48 -186 87 -281 l30 -72 43 0 43 0 30 73 c43 104
80 225 84 277 l3 45 -34 0 -34 0 -17 -85 c-24 -112 -62 -232 -75 -231 -13 2
-37 73 -65 196 -12 55 -24 106 -26 113 -2 7 -19 12 -40 12 l-36 0 7 -47z"/>
</g>
</svg>
